<svg width="22" height="22" viewBox="0 0 22 22" fill="none" xmlns="http://www.w3.org/2000/svg">
<path d="M12.0003 5.41703C9.47988 5.41703 7.41699 7.47992 7.41699 10.0004C7.41699 12.5208 9.47988 14.5837 12.0003 14.5837C14.5208 14.5837 16.5837 12.5208 16.5837 10.0004C16.5837 7.47992 14.5208 5.41703 12.0003 5.41703ZM12.0003 7.25036C13.53 7.25036 14.7503 8.47072 14.7503 10.0004C14.7503 11.53 13.53 12.7504 12.0003 12.7504C10.4707 12.7504 9.25033 11.53 9.25033 10.0004C9.25033 8.47072 10.4707 7.25036 12.0003 7.25036Z" fill="#74BB98"/>
<path d="M6.50016 0.833332C4.48469 0.833332 2.8335 2.48452 2.8335 4.5V6.33333C2.8335 6.57645 2.93007 6.80962 3.10198 6.98153C3.27389 7.15344 3.50705 7.25 3.75016 7.25C3.99328 7.25 4.22644 7.15344 4.39834 6.98153C4.57025 6.80962 4.66683 6.57645 4.66683 6.33333V4.5C4.66683 3.46847 5.46864 2.66667 6.50016 2.66667H8.3335C8.57661 2.66667 8.80977 2.5701 8.98168 2.39819C9.15359 2.22629 9.25016 1.99311 9.25016 1.75C9.25016 1.50688 9.15359 1.27374 8.98168 1.10183C8.80977 0.929922 8.57661 0.833332 8.3335 0.833332H6.50016Z" fill="#74BB98"/>
<path d="M3.75016 12.75C3.50705 12.75 3.27389 12.8466 3.10198 13.0185C2.93007 13.1904 2.8335 13.4236 2.8335 13.6667V15.5C2.8335 17.5155 4.48469 19.1667 6.50016 19.1667H8.3335C8.57661 19.1667 8.80977 19.0701 8.98168 18.8982C9.15359 18.7263 9.25016 18.4931 9.25016 18.25C9.25016 18.0069 9.15359 17.7737 8.98168 17.6018C8.80977 17.4299 8.57661 17.3333 8.3335 17.3333H6.50016C5.46864 17.3333 4.66683 16.5315 4.66683 15.5V13.6667C4.66683 13.4236 4.57025 13.1904 4.39834 13.0185C4.22644 12.8466 3.99328 12.75 3.75016 12.75Z" fill="#74BB98"/>
<path d="M20.25 12.75C20.0069 12.75 19.7737 12.8466 19.6018 13.0185C19.4299 13.1904 19.3333 13.4236 19.3333 13.6667V15.5C19.3333 16.5315 18.5315 17.3333 17.5 17.3333H15.6667C15.4236 17.3333 15.1904 17.4299 15.0185 17.6018C14.8466 17.7737 14.75 18.0069 14.75 18.25C14.75 18.4931 14.8466 18.7263 15.0185 18.8982C15.1904 19.0701 15.4236 19.1667 15.6667 19.1667H17.5C19.5155 19.1667 21.1667 17.5155 21.1667 15.5V13.6667C21.1667 13.4236 21.0701 13.1904 20.8982 13.0185C20.7263 12.8466 20.4931 12.75 20.25 12.75Z" fill="#74BB98"/>
<path d="M15.6667 0.833332C15.4236 0.833332 15.1904 0.929922 15.0185 1.10183C14.8466 1.27374 14.75 1.50688 14.75 1.75C14.75 1.99311 14.8466 2.22629 15.0185 2.39819C15.1904 2.5701 15.4236 2.66667 15.6667 2.66667H17.5C18.5315 2.66667 19.3333 3.46847 19.3333 4.5V6.33333C19.3333 6.57645 19.4299 6.80962 19.6018 6.98153C19.7737 7.15344 20.0069 7.25 20.25 7.25C20.4931 7.25 20.7263 7.15344 20.8982 6.98153C21.0701 6.80962 21.1667 6.57645 21.1667 6.33333V4.5C21.1667 2.48452 19.5155 0.833332 17.5 0.833332H15.6667Z" fill="#74BB98"/>
</svg>
