<svg width="44" height="44" viewBox="0 0 44 44" fill="none" xmlns="http://www.w3.org/2000/svg">
<g clip-path="url(#clip0_204_33)">
<mask id="mask0_204_33" style="mask-type:luminance" maskUnits="userSpaceOnUse" x="0" y="0" width="44" height="44">
<path d="M44 0H0V44H44V0Z" fill="white"/>
</mask>
<g mask="url(#mask0_204_33)">
<path d="M40.9635 9.73572L32.9967 17.7025L33.0096 17.7144L22.1489 28.5759L12.8145 19.2424L9.78857 22.2693L20.4888 32.9695L20.4778 32.9796L22.1186 34.6204L22.1287 34.6103L22.1388 34.6204L22.8703 33.8889L22.8776 33.8963L36.0346 20.7393L44.0004 12.7736L40.9635 9.73572Z" fill="#20A7CF"/>
<path d="M12.5256 28.2195L3.19212 18.887L0.165283 21.9129L10.8655 32.6122L10.8545 32.6232L12.4963 34.264L12.5064 34.254L12.5155 34.264L13.247 33.5325L13.2544 33.539L15.5662 31.2271L12.5421 28.204L12.5256 28.2195Z" fill="#20A7CF"/>
<path d="M22.0492 24.7454L26.4116 20.383L34.3774 12.4162L31.3405 9.37927L23.3747 17.346L23.3875 17.3589L19.0242 21.7204L22.0492 24.7454Z" fill="#20A7CF"/>
</g>
</g>
<defs>
<clipPath id="clip0_204_33">
<rect width="44" height="44" fill="white"/>
</clipPath>
</defs>
</svg>
