<svg width="30" height="30" viewBox="0 0 30 30" fill="none" xmlns="http://www.w3.org/2000/svg">
<path d="M11.375 7.87502C12 7.62502 12.375 6.87502 12.125 6.25002C12 5.62502 11.25 5.25002 10.625 5.37502C5.875 6.75002 2.5 11.25 2.5 16.25C2.5 22.5 7.5 27.5 13.75 27.5C20 27.5 25 22.5 25 16.25C25 15.5 24.5 15 23.75 15C23 15 22.5 15.5 22.5 16.25C22.5 21.125 18.625 25 13.75 25C8.875 25 5 21.125 5 16.25C5 12.375 7.625 8.87502 11.375 7.87502Z" fill="#3F3E3E"/>
<path d="M17.5 2.74998C16.625 2.62498 15.625 2.74998 14.875 3.37498C14.125 3.99998 13.75 4.87498 13.75 5.74998V12.25C13.75 13.25 14.25 14.125 15 14.625C15.5 15 16.25 15.25 17 15.25C17.5 15.25 18.125 15.125 18.625 15L24.125 13C25 12.625 25.75 12 26 11.125C26.25 10.25 26.25 9.24998 25.75 8.49998C23.875 5.49998 20.875 3.37498 17.5 2.74998ZM23.625 10.25C23.625 10.375 23.5 10.5 23.25 10.625L17.75 12.625C17.125 12.875 16.625 12.75 16.5 12.625C16.25 12.625 16.25 12.5 16.25 12.375V5.74998C16.25 5.49998 16.375 5.37498 16.5 5.24998C16.625 5.24998 16.75 5.12498 16.875 5.12498H17C19.75 5.62498 22.125 7.37498 23.5 9.74998C23.625 9.99998 23.625 10.25 23.625 10.25Z" fill="#3F3E3E"/>
</svg>
