<svg width="24" height="24" viewBox="0 0 24 24" fill="none" xmlns="http://www.w3.org/2000/svg">
<g clip-path="url(#clip0_118_20)">
<path d="M22.3436 5.31042L17.9981 9.65592L18.0051 9.66243L12.0811 15.5869L6.98961 10.4959L5.33911 12.1469L11.1756 17.9834L11.1696 17.9889L12.0646 18.8839L12.0701 18.8784L12.0756 18.8839L12.4746 18.4849L12.4786 18.4889L19.6551 11.3124L24.0001 6.96742L22.3436 5.31042Z" fill="#2C8C5D"/>
<path d="M6.83209 15.3925L1.74109 10.302L0.0900879 11.9525L5.92659 17.7885L5.92059 17.7945L6.81609 18.6895L6.82159 18.684L6.82659 18.6895L7.22559 18.2905L7.22959 18.294L8.49059 17.033L6.84109 15.384L6.83209 15.3925Z" fill="#2C8C5D"/>
<path d="M12.0267 13.4975L14.4062 11.118L18.7512 6.77247L17.0947 5.11597L12.7497 9.46147L12.7567 9.46847L10.3767 11.8475L12.0267 13.4975Z" fill="#2C8C5D"/>
</g>
<defs>
<clipPath id="clip0_118_20">
<rect width="24" height="24" fill="white"/>
</clipPath>
</defs>
</svg>
