<svg width="41" height="41" viewBox="0 0 41 41" fill="none" xmlns="http://www.w3.org/2000/svg">
<path d="M1.28125 9.62205C1.38059 10.0871 1.53263 10.5392 1.73443 10.9698L3.02905 11.0883C3.18731 11.3451 3.36701 11.588 3.56621 11.8146L3.2825 13.0534C3.64152 13.3757 4.03507 13.6574 4.45599 13.8932L5.56883 13.2481C5.85297 13.3637 6.14628 13.4554 6.4457 13.5221L6.96238 14.7344H8.41258L8.92922 13.5221C9.22862 13.4554 9.52192 13.3638 9.80605 13.2482L10.9189 13.8933L12.0924 13.0535L11.8086 11.8147C12.0079 11.5882 12.1876 11.3452 12.3459 11.0884L13.6405 10.9699C13.8423 10.5393 13.9944 10.0872 14.0938 9.62212L13.1142 8.77784V7.87841L14.0938 7.03416C13.9944 6.56915 13.8424 6.11697 13.6406 5.68641L12.346 5.56793C12.1877 5.31114 12.008 5.06817 11.8088 4.84164L12.0925 3.60288C11.7335 3.28054 11.3399 2.99888 10.919 2.76302L9.80617 3.40813C9.52204 3.29249 9.22873 3.20085 8.9293 3.13419L8.41262 1.92188H6.96242L6.44578 3.13415C6.14638 3.20086 5.85308 3.29251 5.56895 3.40813L4.45607 2.76302C4.03517 2.99884 3.64163 3.28047 3.28261 3.60277L3.56636 4.84156C3.36711 5.06806 3.18739 5.31102 3.02915 5.56785L1.73449 5.68633C1.53264 6.11689 1.38058 6.56908 1.28125 7.03413L2.26077 7.87835V8.77784L1.28125 9.62205ZM7.6875 5.76562C8.19431 5.76562 8.68975 5.91591 9.11115 6.19748C9.53255 6.47906 9.86099 6.87926 10.0549 7.3475C10.2489 7.81573 10.2996 8.33097 10.2008 8.82804C10.1019 9.32512 9.85783 9.78171 9.49946 10.1401C9.14109 10.4985 8.6845 10.7425 8.18742 10.8414C7.69034 10.9403 7.17511 10.8895 6.70687 10.6956C6.23864 10.5016 5.83843 10.1732 5.55686 9.75177C5.27529 9.33037 5.125 8.83494 5.125 8.32812C5.125 7.64851 5.39498 6.99673 5.87554 6.51616C6.3561 6.0356 7.00788 5.76563 7.6875 5.76562Z" fill="#D14141"/>
<path d="M8.32812 34.5938H3.20312V39.7188H8.32812V34.5938Z" fill="#D14141"/>
<path d="M17.9375 32.6719H12.8125V39.7188H17.9375V32.6719Z" fill="#D14141"/>
<path d="M27.5469 30.1094H22.4219V39.7188H27.5469V30.1094Z" fill="#D14141"/>
<path d="M37.1562 24.3438H32.0312V39.7188H37.1562V24.3438Z" fill="#D14141"/>
<path d="M23.6256 15.7103C23.585 15.6354 23.5299 15.5693 23.4634 15.5159C23.397 15.4625 23.3206 15.4229 23.2386 15.3994L18.7543 14.1182L18.4021 15.3506L21.5414 16.2476L2.21094 28.9332L2.91413 30.0043L21.9274 17.5268L20.8735 20.9523L22.0978 21.3289L23.6747 16.2039C23.6998 16.1226 23.7084 16.037 23.7 15.9522C23.6916 15.8674 23.6663 15.7852 23.6256 15.7103Z" fill="#D14141"/>
<path d="M29.1484 10.2084L28.6193 13.4531L31.3906 11.9214L34.162 13.4531L33.6328 10.2084L35.875 7.91044L32.7763 7.43702L31.3906 4.48438L30.005 7.43702L26.9062 7.91044L29.1484 10.2084Z" fill="#D14141"/>
<path d="M32.6206 16.5398C32.2178 16.6111 31.8094 16.647 31.4003 16.6469H31.3906C30.9827 16.6471 30.5756 16.6116 30.1738 16.541L29.9536 17.8128C30.4333 17.882 30.9165 17.9236 31.401 17.9375C31.8845 17.9375 32.3672 17.8949 32.8433 17.8102L32.6206 16.5398Z" fill="#D14141"/>
<path d="M34.9172 15.6947L35.5597 16.8114C36.4006 16.3209 37.1492 15.6873 37.7719 14.9391L36.7909 14.1085C36.2635 14.7423 35.6294 15.279 34.9172 15.6947Z" fill="#D14141"/>
<path d="M36.7737 4.9672C37.3052 5.59934 37.722 6.31958 38.0052 7.09536L39.2077 6.64919C38.8728 5.73225 38.38 4.88105 37.7515 4.13416L36.7737 4.9672Z" fill="#D14141"/>
<path d="M29.9211 1.28882C28.964 1.46078 28.045 1.80086 27.2065 2.29332L27.8515 3.40874C28.5605 2.9923 29.3376 2.70471 30.1469 2.55927L29.9211 1.28882Z" fill="#D14141"/>
<path d="M39.2192 12.4178C39.5526 11.4915 39.7216 10.5141 39.7184 9.5297L39.4357 9.52466L38.4375 9.54857C38.4387 10.3763 38.2957 11.198 38.0149 11.9767L39.2192 12.4178Z" fill="#D14141"/>
<path d="M35.5316 2.26874C34.6903 1.78104 33.7691 1.44669 32.8108 1.28125L32.5938 2.55296C33.4039 2.69312 34.1827 2.97582 34.8941 3.38791L35.5316 2.26874Z" fill="#D14141"/>
<path d="M23.5679 12.4328L24.771 11.9892C24.4887 11.2114 24.3442 10.3904 24.344 9.56299L23.0627 9.56555C23.0631 10.5434 23.2341 11.5137 23.5679 12.4328Z" fill="#D14141"/>
<path d="M25.9985 14.1187L25.0188 14.9505C25.6428 15.6978 26.3926 16.3304 27.2344 16.8196L27.875 15.7017C27.162 15.2874 26.5269 14.7517 25.9985 14.1187Z" fill="#D14141"/>
<path d="M23.5566 6.69569L24.7616 7.13429C25.0405 6.35667 25.4534 5.63387 25.9815 4.99861L24.998 4.17053C24.3741 4.9218 23.8862 5.77639 23.5566 6.69569Z" fill="#D14141"/>
</svg>
