<svg width="29" height="29" viewBox="0 0 29 29" fill="none" xmlns="http://www.w3.org/2000/svg">
<path d="M14.5 25.8257C12.8268 25.8245 10.2154 23.7937 9.4555 23.1712C9.33269 23.0707 9.23088 22.947 9.15588 22.8072C9.08088 22.6674 9.03415 22.5141 9.01837 22.3562C9.0026 22.1983 9.01807 22.0389 9.06392 21.8869C9.10976 21.735 9.18508 21.5936 9.28558 21.4708C9.38607 21.348 9.50977 21.2462 9.64961 21.1712C9.78944 21.0962 9.94269 21.0495 10.1006 21.0337C10.2585 21.0179 10.4179 21.0334 10.5699 21.0792C10.7218 21.1251 10.8632 21.2004 10.986 21.3009C11.9929 22.2494 13.1934 22.9686 14.5048 23.409C16.0016 23.3382 24.5154 17.1773 24.5154 10.2023C24.5163 9.46879 24.4146 8.73877 24.2133 8.03343C23.9435 7.11016 23.3817 6.29924 22.6121 5.72228C21.8424 5.14531 20.9065 4.83339 19.9446 4.83329C18.9685 4.86718 18.0274 5.20496 17.2525 5.7995C16.4776 6.39404 15.9077 7.21567 15.6222 8.14972C15.5325 8.37389 15.3777 8.56603 15.1777 8.70137C14.9777 8.83672 14.7418 8.90905 14.5003 8.90905C14.2589 8.90905 14.023 8.83672 13.823 8.70137C13.623 8.56603 13.4682 8.37389 13.3785 8.14972C13.0929 7.21572 12.523 6.39413 11.7481 5.79961C10.9733 5.20508 10.0321 4.86726 9.05606 4.83329C8.0942 4.83345 7.1583 5.14532 6.38861 5.72217C5.61893 6.29901 5.0569 7.10975 4.78678 8.0329C4.58604 8.73854 4.48457 9.46871 4.48529 10.2024C4.68047 13.1078 5.83067 15.8673 7.75686 18.0513C7.95794 18.3007 8.05169 18.6198 8.0175 18.9383C7.98331 19.2569 7.82398 19.5488 7.57455 19.7499C7.32512 19.951 7.00603 20.0447 6.68748 20.0105C6.36892 19.9763 6.077 19.817 5.87592 19.5676C3.59874 16.9573 2.25873 13.6611 2.06861 10.2024C2.06782 9.24419 2.20068 8.2906 2.46332 7.36914C2.87917 5.9419 3.74637 4.68787 4.93495 3.795C6.12354 2.90213 7.56947 2.41851 9.05606 2.41663C10.1218 2.41837 11.1717 2.67442 12.1185 3.16349C13.0654 3.65257 13.8818 4.36055 14.5 5.2286C15.1183 4.36048 15.9349 3.65246 16.8819 3.16338C17.8288 2.67431 18.8788 2.41829 19.9446 2.41663C21.4311 2.41837 22.877 2.90188 24.0655 3.79466C25.254 4.68744 26.1211 5.94139 26.5368 7.36855C26.8 8.29009 26.9331 9.24393 26.9321 10.2023C26.9321 18.44 17.3681 25.8257 14.5 25.8257Z" fill="#2C8C5D"/>
<path d="M14.1024 18.902C13.7819 18.9019 13.4747 18.7746 13.2481 18.548L10.6249 15.9249C10.4007 15.6978 10.2754 15.3913 10.2764 15.0721C10.2774 14.753 10.4046 14.4473 10.6302 14.2216C10.8559 13.9959 11.1616 13.8687 11.4807 13.8677C11.7999 13.8667 12.1064 13.992 12.3335 14.2162L13.9873 15.8694L17.7739 10.9812C17.8709 10.8551 17.9917 10.7494 18.1296 10.6702C18.2675 10.5909 18.4196 10.5396 18.5774 10.5193C18.7351 10.499 18.8953 10.51 19.0488 10.5517C19.2022 10.5934 19.3459 10.665 19.4717 10.7624C19.5974 10.8598 19.7027 10.9811 19.7814 11.1192C19.8602 11.2574 19.9109 11.4097 19.9307 11.5675C19.9504 11.7253 19.9389 11.8855 19.8966 12.0388C19.8543 12.1921 19.7822 12.3356 19.6844 12.4609L15.0575 18.4336C14.9525 18.5692 14.8198 18.681 14.6682 18.7613C14.5166 18.8417 14.3497 18.8889 14.1784 18.8997C14.1531 18.9015 14.1277 18.902 14.1024 18.902Z" fill="#2C8C5D"/>
</svg>
