<svg width="27" height="29" viewBox="0 0 27 29" fill="none" xmlns="http://www.w3.org/2000/svg">
<path d="M13.5 28.7188C12.3397 28.7188 11.2269 28.2578 10.4064 27.4373C9.58594 26.6169 9.125 25.5041 9.125 24.3438C9.125 24.0537 9.24023 23.7755 9.44535 23.5704C9.65047 23.3652 9.92867 23.25 10.2188 23.25H16.7812C17.0713 23.25 17.3495 23.3652 17.5546 23.5704C17.7598 23.7755 17.875 24.0537 17.875 24.3438C17.875 25.5041 17.4141 26.6169 16.5936 27.4373C15.7731 28.2578 14.6603 28.7188 13.5 28.7188ZM11.6078 25.4375C11.8001 25.769 12.0761 26.0442 12.4082 26.2354C12.7403 26.4267 13.1168 26.5274 13.5 26.5274C13.8832 26.5274 14.2597 26.4267 14.5918 26.2354C14.9239 26.0442 15.1999 25.769 15.3922 25.4375H11.6078Z" fill="#767373"/>
<path d="M15.6875 4.65625H11.3125C11.0224 4.65625 10.7442 4.54102 10.5391 4.3359C10.334 4.13078 10.2188 3.85258 10.2188 3.5625C10.2188 2.69226 10.5645 1.85766 11.1798 1.24231C11.7952 0.626952 12.6298 0.28125 13.5 0.28125C14.3702 0.28125 15.2048 0.626952 15.8202 1.24231C16.4355 1.85766 16.7812 2.69226 16.7812 3.5625C16.7812 3.85258 16.666 4.13078 16.4609 4.3359C16.2558 4.54102 15.9776 4.65625 15.6875 4.65625Z" fill="#767373"/>
<path d="M25.5313 25.4375H1.46875C1.17867 25.4375 0.900472 25.3223 0.695354 25.1171C0.490237 24.912 0.375002 24.6338 0.375002 24.3438C0.374043 23.1085 0.671963 21.8914 1.24333 20.7963C1.81471 19.7012 2.64256 18.7605 3.65625 18.0547V12.3125C3.65619 9.71311 4.68429 7.2192 6.51618 5.37502C8.34807 3.53083 10.835 2.48608 13.4344 2.46875H13.5547C16.1654 2.46875 18.6692 3.50586 20.5153 5.35192C22.3613 7.19798 23.3984 9.70178 23.3984 12.3125V18.0547C24.402 18.7666 25.2193 19.7098 25.7809 20.8046C26.3426 21.8993 26.6321 23.1133 26.625 24.3438C26.625 24.6338 26.5098 24.912 26.3047 25.1171C26.0995 25.3223 25.8213 25.4375 25.5313 25.4375ZM2.67188 23.25H24.3281C24.1732 22.4917 23.8591 21.775 23.4066 21.1471C22.9541 20.5193 22.3735 19.9946 21.7031 19.6078C21.5362 19.5114 21.3977 19.3727 21.3017 19.2056C21.2057 19.0385 21.1555 18.849 21.1563 18.6562V12.3125C21.1563 10.2819 20.3496 8.33454 18.9138 6.89871C17.478 5.46289 15.5306 4.65625 13.5 4.65625C11.4694 4.65625 9.52204 5.46289 8.08622 6.89871C6.65039 8.33454 5.84375 10.2819 5.84375 12.3125V18.6562C5.84452 18.849 5.79434 19.0385 5.69831 19.2056C5.60227 19.3727 5.46379 19.5114 5.29688 19.6078C4.62653 19.9946 4.0459 20.5193 3.59339 21.1471C3.14088 21.775 2.82679 22.4917 2.67188 23.25Z" fill="#767373"/>
</svg>
