<svg width="44" height="44" viewBox="0 0 44 44" fill="none" xmlns="http://www.w3.org/2000/svg">
<path d="M22.0001 39.1838C19.4614 39.182 15.4993 36.1008 14.3464 35.1563C14.16 35.0038 14.0056 34.8162 13.8918 34.604C13.778 34.3919 13.7071 34.1593 13.6831 33.9198C13.6592 33.6802 13.6827 33.4383 13.7523 33.2077C13.8218 32.9773 13.9361 32.7627 14.0886 32.5764C14.241 32.3901 14.4287 32.2356 14.6409 32.1218C14.853 32.008 15.0856 31.9372 15.3251 31.9132C15.5647 31.8892 15.8066 31.9128 16.0372 31.9823C16.2677 32.0519 16.4822 32.1661 16.6685 32.3186C18.1962 33.7577 20.0177 34.8489 22.0074 35.5171C24.2784 35.4097 37.1959 26.0621 37.1959 15.4794C37.1972 14.3665 37.0429 13.2588 36.7375 12.1887C36.3282 10.7878 35.4758 9.55748 34.3081 8.68209C33.1403 7.80669 31.7203 7.33343 30.2609 7.33328C28.7799 7.3847 27.352 7.8972 26.1763 8.79926C25.0006 9.70132 24.1359 10.9479 23.7027 12.3651C23.5666 12.7052 23.3318 12.9968 23.0283 13.2021C22.7249 13.4075 22.367 13.5172 22.0006 13.5172C21.6343 13.5172 21.2764 13.4075 20.9729 13.2021C20.6695 12.9968 20.4346 12.7052 20.2985 12.3651C19.8652 10.948 19.0005 9.70145 17.8248 8.79942C16.6492 7.89738 15.2212 7.38482 13.7403 7.33328C12.281 7.33353 10.861 7.80671 9.69316 8.68193C8.52537 9.55713 7.67263 10.7872 7.2628 12.1879C6.95823 13.2585 6.80427 14.3663 6.80536 15.4795C7.1015 19.8877 8.84663 24.0745 11.7691 27.3882C12.0742 27.7666 12.2165 28.2507 12.1646 28.734C12.1127 29.2174 11.871 29.6603 11.4925 29.9654C11.1141 30.2705 10.6299 30.4127 10.1466 30.3608C9.66329 30.3089 9.22037 30.0672 8.91529 29.6888C5.46025 25.7283 3.42714 20.7272 3.13868 15.4795C3.13748 14.0257 3.33906 12.5789 3.73755 11.1808C4.36849 9.01531 5.68424 7.11265 7.48761 5.75795C9.29099 4.40325 11.4848 3.66948 13.7403 3.66663C15.3573 3.66927 16.9503 4.05776 18.3868 4.79979C19.8235 5.54185 21.0621 6.61602 22.0001 7.93306C22.9382 6.61592 24.1772 5.54168 25.614 4.79963C27.0507 4.05759 28.6438 3.66914 30.2609 3.66663C32.5162 3.66927 34.71 4.40287 36.5133 5.75743C38.3165 7.11199 39.6321 9.01454 40.2628 11.1799C40.6622 12.5781 40.8641 14.0253 40.8626 15.4794C40.8626 27.9779 26.3517 39.1838 22.0001 39.1838Z" fill="#F69139"/>
<path d="M21.3968 28.6789C20.9105 28.6788 20.4444 28.4856 20.1006 28.1418L16.1206 24.1619C15.7804 23.8174 15.5903 23.3523 15.5918 22.868C15.5933 22.3839 15.7863 21.92 16.1286 21.5776C16.471 21.2352 16.9349 21.0422 17.419 21.0407C17.9033 21.0391 18.3684 21.2292 18.7129 21.5694L21.2221 24.0777L26.9673 16.6611C27.1145 16.4698 27.2978 16.3094 27.507 16.1893C27.7162 16.069 27.947 15.9911 28.1864 15.9603C28.4257 15.9295 28.6688 15.9462 28.9017 16.0095C29.1344 16.0728 29.3524 16.1814 29.5433 16.3292C29.734 16.4769 29.8938 16.661 30.0132 16.8705C30.1327 17.0802 30.2097 17.3113 30.2397 17.5507C30.2696 17.7901 30.2522 18.0332 30.188 18.2658C30.1238 18.4984 30.0144 18.7161 29.866 18.9062L22.8459 27.9682C22.6866 28.174 22.4852 28.3436 22.2552 28.4654C22.0252 28.5874 21.772 28.659 21.5121 28.6754C21.4737 28.6781 21.4352 28.6789 21.3968 28.6789Z" fill="#F69139"/>
</svg>
